<svg width="151" height="24" viewBox="0 0 151 24" fill="none" xmlns="http://www.w3.org/2000/svg">
<path d="M28 3L12.5618 13.0208L12.738 11.0512L28 3ZM28 3L13.1519 6.41405L13.2906 4.85742L8.49551 6.93903L8.2305 7.5456L0 9.43719L5.94014 14.6345L8.06774 13.5115L7.82148 16.2788L14.3607 22L28 3ZM8.41276 9.61888L8.18275 12.1974L7.04768 12.7553L8.41276 9.61888Z" fill="#FA955D"/>
<path d="M36.248 5.672H38.264V10.568H38.312L43.048 5.672H45.768L40.472 10.904L46.12 17H43.288L38.312 11.32H38.264V17H36.248V5.672ZM50.6438 5.672H52.3878L57.2678 17H54.9638L53.9078 14.408H48.9958L47.9718 17H45.7157L50.6438 5.672ZM53.2038 12.68L51.4598 8.072L49.6838 12.68H53.2038ZM58.3886 5.672H60.4046V17H58.3886V5.672ZM62.2163 15.176L68.3763 7.432H62.3123V5.672H70.7763V7.496L64.5843 15.208H70.8723V17H62.2163V15.176ZM72.6855 5.672H80.1895V7.432H74.7015V10.312H79.9015V12.008H74.7015V15.208H80.4775V17H72.6855V5.672ZM82.4511 5.672H85.1231L90.3871 14.152H90.4191V5.672H92.4351V17H89.8751L84.4991 8.248H84.4671V17H82.4511V5.672ZM102.824 17H101.672V6.696H97.8795V5.672H106.616V6.696H102.824V17ZM106.815 11.16C106.815 10.9573 106.81 10.696 106.799 10.376C106.788 10.056 106.772 9.768 106.751 9.512H107.791C107.812 9.71467 107.828 9.93867 107.839 10.184C107.85 10.4293 107.855 10.632 107.855 10.792H107.887C108.1 10.3547 108.42 10.0027 108.847 9.736C109.274 9.45867 109.754 9.32 110.287 9.32C110.426 9.32 110.548 9.32533 110.655 9.336C110.772 9.34667 110.89 9.368 111.007 9.4L110.863 10.424C110.799 10.4027 110.692 10.3813 110.543 10.36C110.394 10.3387 110.244 10.328 110.095 10.328C109.807 10.328 109.53 10.3813 109.263 10.488C108.996 10.5947 108.762 10.7653 108.559 11C108.367 11.224 108.207 11.5173 108.079 11.88C107.962 12.232 107.903 12.6587 107.903 13.16V17H106.815V11.16ZM117.113 12.168C117.113 11.5173 116.942 11.032 116.601 10.712C116.26 10.392 115.764 10.232 115.113 10.232C114.665 10.232 114.249 10.312 113.865 10.472C113.481 10.632 113.156 10.8453 112.889 11.112L112.281 10.392C112.59 10.0827 112.996 9.82667 113.497 9.624C114.009 9.42133 114.585 9.32 115.225 9.32C115.63 9.32 116.009 9.37867 116.361 9.496C116.713 9.60267 117.022 9.768 117.289 9.992C117.556 10.216 117.764 10.4987 117.913 10.84C118.062 11.1813 118.137 11.5813 118.137 12.04V15.32C118.137 15.608 118.148 15.9067 118.169 16.216C118.19 16.5253 118.222 16.7867 118.265 17H117.289C117.257 16.8187 117.23 16.6213 117.209 16.408C117.188 16.1947 117.177 15.9867 117.177 15.784H117.145C116.804 16.2853 116.414 16.648 115.977 16.872C115.55 17.0853 115.033 17.192 114.425 17.192C114.137 17.192 113.838 17.1493 113.529 17.064C113.23 16.9893 112.953 16.8613 112.697 16.68C112.452 16.4987 112.244 16.264 112.073 15.976C111.913 15.688 111.833 15.336 111.833 14.92C111.833 14.344 111.977 13.8907 112.265 13.56C112.564 13.2187 112.958 12.968 113.449 12.808C113.94 12.6373 114.5 12.5307 115.129 12.488C115.769 12.4347 116.43 12.408 117.113 12.408V12.168ZM116.793 13.256C116.345 13.256 115.892 13.2773 115.433 13.32C114.985 13.352 114.574 13.4267 114.201 13.544C113.838 13.6507 113.54 13.8107 113.305 14.024C113.07 14.2373 112.953 14.52 112.953 14.872C112.953 15.1387 113.001 15.3627 113.097 15.544C113.204 15.7253 113.342 15.8747 113.513 15.992C113.684 16.0987 113.87 16.1787 114.073 16.232C114.286 16.2747 114.5 16.296 114.713 16.296C115.097 16.296 115.438 16.232 115.737 16.104C116.036 15.9653 116.286 15.784 116.489 15.56C116.692 15.3253 116.846 15.0587 116.953 14.76C117.06 14.4613 117.113 14.1467 117.113 13.816V13.256H116.793ZM126.332 11.224C126.151 10.936 125.884 10.7013 125.532 10.52C125.191 10.328 124.817 10.232 124.412 10.232C123.975 10.232 123.58 10.312 123.228 10.472C122.876 10.6213 122.572 10.8347 122.316 11.112C122.071 11.3787 121.879 11.6987 121.74 12.072C121.612 12.4347 121.548 12.8293 121.548 13.256C121.548 13.6827 121.612 14.0773 121.74 14.44C121.879 14.8027 122.071 15.1227 122.316 15.4C122.561 15.6667 122.86 15.88 123.212 16.04C123.564 16.1893 123.959 16.264 124.396 16.264C124.876 16.264 125.281 16.1733 125.612 15.992C125.943 15.8107 126.215 15.576 126.428 15.288L127.244 15.896C126.924 16.2907 126.529 16.6053 126.06 16.84C125.601 17.0747 125.047 17.192 124.396 17.192C123.788 17.192 123.239 17.096 122.748 16.904C122.257 16.7013 121.836 16.424 121.484 16.072C121.143 15.72 120.876 15.304 120.684 14.824C120.492 14.344 120.396 13.8213 120.396 13.256C120.396 12.6907 120.492 12.168 120.684 11.688C120.876 11.208 121.143 10.792 121.484 10.44C121.836 10.088 122.257 9.816 122.748 9.624C123.239 9.42133 123.788 9.32 124.396 9.32C124.897 9.32 125.404 9.432 125.916 9.656C126.439 9.86933 126.86 10.1893 127.18 10.616L126.332 11.224ZM130.06 12.888H130.108L133.564 9.512H135.132L131.356 12.936L135.516 17H133.916L130.108 13.064H130.06V17H128.972V4.904H130.06V12.888ZM142.527 12.68C142.495 11.976 142.266 11.3947 141.839 10.936C141.423 10.4667 140.826 10.232 140.047 10.232C139.684 10.232 139.348 10.3013 139.039 10.44C138.73 10.568 138.458 10.7493 138.223 10.984C137.988 11.208 137.802 11.4693 137.663 11.768C137.524 12.056 137.444 12.36 137.423 12.68H142.527ZM143.631 13.032C143.631 13.1067 143.631 13.1867 143.631 13.272C143.631 13.3573 143.626 13.448 143.615 13.544H137.407C137.418 13.9173 137.492 14.2693 137.631 14.6C137.77 14.9307 137.962 15.2187 138.207 15.464C138.452 15.7093 138.74 15.9067 139.071 16.056C139.402 16.1947 139.759 16.264 140.143 16.264C140.708 16.264 141.194 16.136 141.599 15.88C142.015 15.6133 142.33 15.3093 142.543 14.968L143.359 15.608C142.911 16.1733 142.415 16.5787 141.871 16.824C141.338 17.0693 140.762 17.192 140.143 17.192C139.588 17.192 139.071 17.096 138.591 16.904C138.122 16.7013 137.716 16.424 137.375 16.072C137.034 15.72 136.762 15.304 136.559 14.824C136.367 14.344 136.271 13.8213 136.271 13.256C136.271 12.6907 136.367 12.168 136.559 11.688C136.751 11.208 137.018 10.792 137.359 10.44C137.7 10.088 138.1 9.816 138.559 9.624C139.018 9.42133 139.514 9.32 140.047 9.32C140.634 9.32 141.151 9.42133 141.599 9.624C142.047 9.816 142.42 10.0827 142.719 10.424C143.018 10.7547 143.242 11.144 143.391 11.592C143.551 12.04 143.631 12.52 143.631 13.032ZM145.971 11.16C145.971 10.9573 145.966 10.696 145.955 10.376C145.945 10.056 145.929 9.768 145.907 9.512H146.947C146.969 9.71467 146.985 9.93867 146.995 10.184C147.006 10.4293 147.011 10.632 147.011 10.792H147.043C147.257 10.3547 147.577 10.0027 148.003 9.736C148.43 9.45867 148.91 9.32 149.443 9.32C149.582 9.32 149.705 9.32533 149.811 9.336C149.929 9.34667 150.046 9.368 150.163 9.4L150.019 10.424C149.955 10.4027 149.849 10.3813 149.699 10.36C149.55 10.3387 149.401 10.328 149.251 10.328C148.963 10.328 148.686 10.3813 148.419 10.488C148.153 10.5947 147.918 10.7653 147.715 11C147.523 11.224 147.363 11.5173 147.235 11.88C147.118 12.232 147.059 12.6587 147.059 13.16V17H145.971V11.16Z" fill="#0071E3"/>
</svg>
