<svg width="1440" height="872" viewBox="0 0 1440 872" fill="none" xmlns="http://www.w3.org/2000/svg">
<path d="M1455 872V0H1102.36C1041.86 55.7757 1054.61 55.7111 1017.53 233.341C980.461 410.97 743.193 582.948 639.388 618.474C454.021 653.193 247.52 846.163 46.5002 872C10.1024 876.675 -373.255 888.956 -16.7552 888.956L1455 872Z" fill="#EEF7FF"/>
<path opacity="0.5" d="M901.974 766.604C925.368 766.604 947.893 775.097 970.417 782.738C1031.94 803.117 1097.78 803.117 1158.43 780.188C1258.51 741.544 1260.23 612.872 1131.56 637.531C1120.75 638.343 1112.33 642.887 1105.93 649.643C1103.54 670.553 1106 693.932 1116.28 713.958C1128.66 738.046 1148.7 750.206 1144.69 757.541C1138.13 769.556 1077.61 749.434 1069.34 746.643C939.449 702.836 897.452 636.469 859.353 653.423C808.174 685.351 843.566 795.984 746.944 738.166C702.165 716.065 535.368 692.541 518.062 753.68C513.672 774.309 523.142 795.043 541.793 805.546C567.149 819.958 598.019 814.771 625.934 819.395C640.967 823.071 656.451 823.698 669.301 814.32C769.805 773.063 790.294 759.487 901.974 766.604Z" fill="#42A0FF"/>
<path opacity="0.5" d="M1406.58 635.262C1347.44 536.091 1162.29 541.407 1120.07 606.205C1113.16 616.813 1107.9 632.391 1105.93 649.642C1112.34 642.887 1120.75 638.343 1131.58 637.53C1168.83 633.284 1219.95 632.431 1229.48 674.896C1240.75 720.754 1200.89 764.063 1158.43 780.196C1097.79 803.125 1031.94 803.125 970.426 782.746C947.901 775.105 925.368 766.612 901.982 766.612C849.999 765.76 792.814 759.816 743.432 784.442C715.015 798.372 684.663 805.972 656.829 820.899C707.688 824.39 762.674 813.476 782.163 809.607C827.835 800.535 829.797 793.225 854.43 795.083C922.636 800.214 932.852 858.152 988.503 869.54C1066.95 885.601 1104.43 782.303 1191.67 791.447C1265.89 799.233 1281.91 878.531 1330.64 871.358C1391.75 862.342 1459.4 723.834 1406.58 635.262Z" fill="#9CCDFF"/>
<path d="M713.661 759.454C714.753 762.736 717.879 765.872 722.606 768.767L891.766 774.108C896.993 771.172 900.144 767.81 900.644 764.143C902.097 753.39 880.672 743.273 848.194 737.723C848.325 736.453 848.391 735.142 848.391 733.815C848.464 711.642 832.16 692.259 812.441 692.678C796.695 693.015 785.387 706.076 783.672 722.539C781.432 721.775 779.053 721.365 776.624 721.373C767.154 721.397 760.729 727.711 761.492 735.488C729.301 739.453 710.125 748.798 713.661 759.454Z" fill="#42A0FF"/>
<path d="M772.964 376.648C772.964 453.454 834.334 511.649 903.754 506.808C967.332 502.368 1015.24 445.765 1015.24 380.3C1015.24 314.834 967.332 256.783 903.754 250.438C834.334 243.497 772.964 299.851 772.964 376.648ZM801.938 377.083C801.938 317.295 849.26 272.546 903.754 277.026C954.58 281.208 993.475 327.276 993.475 379.962C993.475 432.648 954.58 477.541 903.754 480.195C849.26 483.05 801.938 436.878 801.938 377.083Z" fill="#0071E3"/>
<path d="M801.938 377.083C801.938 436.87 849.26 483.05 903.754 480.203C954.581 477.549 993.475 432.656 993.475 379.97C993.475 327.284 954.581 281.216 903.754 277.034C849.26 272.547 801.938 317.295 801.938 377.083ZM830.83 377.525C830.83 334.626 864.334 302.006 903.763 304.531C941.23 306.936 970.27 340.505 970.27 379.624C970.27 418.743 941.23 451.443 903.763 452.714C864.334 454.049 830.83 420.416 830.83 377.525Z" fill="#EEEEFF"/>
<path d="M830.83 377.525C830.83 420.424 864.334 454.058 903.762 452.714C941.23 451.444 970.27 418.743 970.27 379.624C970.27 340.506 941.23 306.936 903.762 304.532C864.334 301.998 830.83 334.627 830.83 377.525ZM858.648 377.943C858.648 351.411 879.17 330.847 903.762 331.973C927.575 333.066 946.334 354.226 946.334 379.262C946.334 404.299 927.575 424.895 903.762 425.273C879.17 425.659 858.648 404.476 858.648 377.943Z" fill="#0071E3"/>
<path d="M903.754 331.972C927.567 333.066 946.326 354.226 946.326 379.262C946.326 404.298 927.567 424.895 903.754 425.273C879.17 425.659 858.639 404.475 858.639 377.943C858.639 351.411 879.17 330.838 903.754 331.972Z" fill="#9CCDFF"/>
<path d="M903.754 355.36C915.718 355.722 925.286 366.281 925.286 378.94C925.286 391.599 915.727 401.869 903.754 401.877C891.594 401.886 881.591 391.318 881.591 378.281C881.591 365.244 891.594 354.99 903.754 355.36Z" fill="#FA955D"/>
<path d="M916.071 385.841L1046.75 451.395L1043.55 496.755L916.071 385.841Z" fill="#42A0FF"/>
<path d="M916.071 385.841L1044.3 442.556L1101.5 405.553L916.071 385.841Z" fill="#0071E3"/>
<path d="M1046.75 451.395L1006.41 490.136L916.071 385.841" fill="#0071E3"/>
<path d="M1105.11 499.778L1190.74 569.322L1180.76 602.352L1105.11 499.778Z" fill="#42A0FF"/>
<path d="M1105.11 499.778L1190.41 562.397L1238.92 544.253L1105.11 499.778Z" fill="#0071E3"/>
<path d="M1190.74 569.322L1154.4 591.471L1105.11 499.778" fill="#0071E3"/>
<path d="M1147.55 731L1034.69 747.817L1039.02 784.346L1147.55 731Z" fill="#42A0FF"/>
<path d="M1147.55 731L1032.77 741.359L1003.6 725.418L1147.55 731Z" fill="#0071E3"/>
<path d="M1034.69 747.817L1058.46 786.839L1147.55 731" fill="#0071E3"/>
<path d="M1242.17 635.874L1301.89 727.823L1282.04 756.253L1242.17 635.874Z" fill="#42A0FF"/>
<path d="M1242.17 635.874L1303.74 721.132L1355.59 718.454L1242.17 635.874Z" fill="#0071E3"/>
<path d="M1301.89 727.823L1260.37 737.965L1242.17 635.874" fill="#0071E3"/>
<path d="M945.267 637.981C950.568 637.152 946.645 623.93 938.505 627.115C930.365 630.3 908.161 649.691 908.161 649.691L912.862 656.438C912.862 656.438 934.181 639.718 945.267 637.981Z" fill="#0071E3"/>
<path d="M920.034 651.83C920.034 651.83 916.785 647.23 916.76 646.104C916.735 644.978 909.933 650.028 909.933 650.028L914.43 656.583L920.034 651.83Z" fill="white"/>
<path d="M915.685 649.031C916.161 649.031 916.547 648.653 916.547 648.187C916.547 647.72 916.161 647.342 915.685 647.342C915.209 647.342 914.824 647.72 914.824 648.187C914.824 648.653 915.209 649.031 915.685 649.031Z" fill="#0071E3"/>
<path d="M992.753 591.061C992.753 591.061 1001.66 605.224 994.829 608.803C988.002 612.374 992.852 618.671 992.852 618.671L977.581 625.032C977.581 625.032 979.575 619.113 978.762 616.749C977.95 614.384 972.739 610.95 970.27 603.76C966.61 593.128 969.416 589.565 972.625 587.193C975.825 584.804 986.271 580.043 992.753 591.061Z" fill="#FFE8DB"/>
<path d="M929.159 841.286C929.159 841.286 929.102 841.496 928.979 841.817C928.306 843.723 925.795 849.739 922.964 842.734C920.674 837.048 919.714 831.676 918.844 826.891C918.738 826.311 919.78 824.446 919.673 823.883C919.567 823.304 918.311 824.027 918.204 823.464C918.032 822.588 917.843 821.727 917.646 820.899C916.169 814.835 916.169 814.835 921.413 814.891C926.656 814.947 928.552 809.8 930.365 808.055C932.179 806.31 936.889 812.036 936.889 812.036C936.889 812.036 930.907 821.639 930.259 824.357C929.619 827.075 930.751 837.064 929.159 841.286Z" fill="black"/>
<path d="M885.571 833.381C885.571 833.381 885.513 833.59 885.39 833.912C884.717 835.818 882.206 841.833 879.375 834.828C877.086 829.142 876.126 823.77 875.256 818.985C875.149 818.406 876.192 816.54 876.085 815.977C875.978 815.398 874.723 816.122 874.616 815.559C874.444 814.682 874.255 813.821 874.058 812.993C872.581 806.929 872.581 806.929 877.824 806.985C883.068 807.042 884.963 801.894 886.777 800.149C888.59 798.404 893.3 804.13 893.3 804.13C893.3 804.13 887.318 813.733 886.67 816.451C886.03 819.162 887.154 829.158 885.571 833.381Z" fill="black"/>
<path d="M916.851 743.852C915.817 746.972 911.312 752.112 909.326 754.934C902.663 764.4 891.479 781.483 885.234 803.222C886.161 807.629 893.711 809.278 894.671 806.969C895.631 804.661 926.32 760.331 930.365 753.865L930.447 753.736C935.133 740.941 923.481 738.817 916.851 743.852Z" fill="#0071E3"/>
<path d="M950.371 682.254C943.265 686.163 937.529 700.028 933.927 712.052C931.399 720.48 923.629 733.437 916.916 743.699C912.116 752.586 920.248 763.282 930.505 753.591C934.805 746.868 948.131 732.657 960.603 717.271C973.076 701.886 973.56 693.063 973.56 693.063C964.107 689.718 954.146 685.664 950.371 682.254Z" fill="#0071E3"/>
<path d="M954.892 752.321C936.429 778.982 924.547 813.114 924.547 813.114L934.23 817.071C934.23 817.071 965.691 771.896 973.593 760.098C981.495 748.3 963.992 744.359 954.892 752.321Z" fill="#0071E3"/>
<path d="M987.116 723.312C992.154 707.822 992.466 690.45 992.466 690.45C992.466 690.45 981.643 683.147 972.018 683.919C962.392 684.684 958.938 700.407 959.118 709.776C959.299 716.242 954.507 747.817 955.303 753.736C956.107 759.656 971.14 765.028 975.128 757.412C979.115 749.795 985.385 728.66 987.116 723.312Z" fill="#0071E3"/>
<path d="M993.935 584.748C996.364 589.863 992.359 593.819 993.984 598.548C995.609 603.277 989.972 602.505 989.553 597.382C989.135 592.259 985.114 594.246 985.13 598.187C985.155 604.548 989.61 613.154 975.119 612.02C964.657 611.199 965.42 599.433 965.404 595.492C965.387 591.551 964.173 588.005 971.796 582.85C982.734 575.458 991.506 579.624 993.935 584.748Z" fill="#0B2D4E"/>
<path d="M934.747 639.34C944.126 639.959 953.702 638.544 963.106 638.785C969.982 639.758 977.425 640.128 984.293 638.817C988.084 637.281 990.989 632.648 991.777 628.74C990.677 625.475 988.445 622.266 985.721 620.102C979.304 615.502 970.975 617.352 963.918 619.394C954.031 622.25 943.823 624.252 934.772 629.198C933.853 629.697 932.171 631.418 931.826 632.512C931.432 633.766 932.236 635.383 932.679 636.541C933.09 637.643 933.451 639.002 934.747 639.34Z" fill="#0071E3"/>
<path d="M908.817 657.95C907.037 660.46 904.517 661.803 901.342 661.055C897.058 661.047 898.601 656.816 899.922 654.387C900.858 651.203 903.566 649.956 906.741 650.736C914.258 650.487 915.554 654.17 908.817 657.95Z" fill="#FFE8DB"/>
<path d="M993.09 687.458C993.09 687.458 962.786 700.978 943.888 684.619C936.979 676.408 962.483 645.211 962.762 641.335C962.762 641.335 964.6 620.778 968.932 618.325C973.265 615.88 984.096 611.489 989.02 613.492C990.013 613.894 994.657 620.682 1000.58 620.127C1012.13 628.475 1011.63 636.059 1006.73 646.265C1001.83 656.463 995.502 668.108 993.927 675.507C992.351 682.898 993.09 687.458 993.09 687.458Z" fill="#0071E3"/>
<path d="M1006.45 625.451C1007.78 634.716 1007.92 644.447 1002.48 652.811C1002.77 652.924 1003.08 653.02 1003.37 653.109C1004.51 650.801 1005.66 648.492 1006.73 646.257C1010.58 638.262 1011.71 631.869 1006.45 625.451Z" fill="#0071E3"/>
<path d="M1004.45 650.945C1004.26 650.905 1004.06 650.881 1003.87 650.865C1001.53 650.704 999.26 651.685 997.176 652.746C992.696 655.022 988.281 657.99 986.016 662.414C983.571 667.175 983.99 672.837 984.917 678.088C985.934 683.871 985.926 689.694 986.23 690.643C989.635 689.605 993.098 687.466 993.098 687.466C993.098 687.466 992.359 682.914 993.935 675.515C995.272 669.217 1000.04 659.864 1004.45 650.945Z" fill="#0071E3"/>
<path d="M1037.42 616.62C1028.03 616.387 1018.52 618.188 1009.12 618.325C1002.2 617.633 994.747 617.569 987.945 619.153C979.723 623.48 979.279 632.986 987.305 637.916C993.91 642.251 1002.16 640.064 1009.12 637.74C1016.65 634.281 1050.92 628.756 1037.42 616.62Z" fill="#0071E3"/>
<path d="M1052.15 587.739C1054.57 584.603 1054.28 579.761 1057.53 577.34C1061.21 574.349 1067.86 575.442 1069.07 580.236C1067.42 583.42 1066.77 590.425 1061.94 589.846C1058.94 588.737 1056.86 591.093 1054.38 592.066C1052.43 591.334 1050.82 589.814 1052.15 587.739Z" fill="#FFE8DB"/>
<path d="M1028.19 618.019C1023.84 621.107 1032.4 631.78 1038.84 625.957C1045.29 620.126 1058.96 591.31 1058.96 591.31L1050.96 589.315C1050.96 589.315 1035.64 612.727 1028.19 618.019Z" fill="#0071E3"/>
<path d="M978.877 619.652C978.877 619.652 970.672 615.639 975.784 613.789C977.236 613.266 992.458 612.88 993.287 613.572C994.115 614.264 995.264 615.446 995.264 615.446C995.264 615.446 994.936 618.575 993.057 618.269C991.17 617.963 978.877 619.652 978.877 619.652Z" fill="white"/>
<path d="M1045.39 595.235C1045.39 595.235 1052.59 599.184 1053.56 598.355C1054.52 597.527 1058.74 591.785 1058.74 591.785C1058.74 591.785 1050.33 589.991 1049.59 590.289C1048.84 590.594 1045.39 595.235 1045.39 595.235Z" fill="white"/>
<path d="M1052.63 597.35C1053.14 597.35 1053.56 596.943 1053.56 596.441C1053.56 595.939 1053.14 595.532 1052.63 595.532C1052.12 595.532 1051.7 595.939 1051.7 596.441C1051.7 596.943 1052.12 597.35 1052.63 597.35Z" fill="#0071E3"/>
<path d="M942.657 690.104C942.657 690.104 954.613 698.589 971.944 696.466C989.791 693.466 991.432 690.796 991.432 690.796L992.417 686.952C992.417 686.952 966.438 692.123 953.793 688.665C944.258 684.547 943.864 684.885 943.864 684.885C943.979 686.477 945.045 687.659 942.657 690.104Z" fill="white"/>
<path d="M884.471 657.653C884.807 658.079 889.641 661.988 889.641 661.988L870.973 694.809L863.514 687.836L884.471 657.653Z" fill="#0071E3"/>
<path d="M889.641 661.988C891.979 662.438 914.709 670.762 914.709 670.762C914.709 670.762 901.408 697.423 901.563 697.865C901.719 698.308 870.973 694.801 870.973 694.801" fill="#0071E3"/>
<path d="M884.471 657.653L909.892 665.872L914.709 670.762L889.641 661.988L884.471 657.653Z" fill="#42A0FF"/>
<path d="M892.111 660.886L897.772 653.712L902.384 654.782L903.598 655.706L902.852 657.283L899.167 656.422L895.221 662.173L893.112 661.65L892.111 660.886Z" fill="#0071E3"/>
<path d="M906.29 659.969L904.567 665.14L905.363 665.744L907.455 666.508L910.18 657.765C910.18 657.765 909.244 656.816 909.154 657.267C908.99 658.16 907.923 659.052 906.29 659.969Z" fill="#0071E3"/>
<path d="M883.65 659.342L887.647 662.374L881.09 673.883L881.509 675.379L870.644 693.627L864.104 687.933L883.65 659.342Z" fill="#42A0FF"/>
<path d="M890.478 662.213L887.761 672.523L908.366 678.089L914.709 670.762L890.478 662.213Z" fill="#0071E3"/>
<path d="M1143.52 448.404C1142.73 448.307 1141.92 448.235 1141.13 448.17C1140.74 448.846 1141.56 449.393 1142.16 449.554C1150.13 451.114 1144.62 456.237 1150.2 458.441C1154.85 460.524 1155.65 456.454 1158.9 456.808C1159.72 458.063 1161.36 459.132 1161.99 457.098C1162.32 453.012 1147.21 448.581 1143.52 448.404Z" fill="#FFE8DB"/>
<path d="M1194.66 480.316C1186.32 473.311 1175.45 464.85 1161.33 454.564L1158.28 458.255C1158.28 458.255 1172.49 474.075 1185.94 488.946C1192.13 493.868 1199.18 485.889 1194.66 480.316Z" fill="#0071E3"/>
<path d="M1226.36 487.651C1230.82 486.903 1235.26 484.973 1233.72 480.694C1231.92 478.08 1234 468.976 1189.7 478.692C1180.54 480.952 1183.28 490.892 1191.52 490.707C1208.35 489.332 1224.33 487.989 1226.36 487.651Z" fill="#0071E3"/>
<path d="M1226.36 487.651C1230.82 486.903 1235.26 484.973 1233.72 480.694C1232.89 479.504 1232.88 476.955 1228.89 475.467C1211.3 479.536 1209.64 487.177 1192.76 490.611C1208.84 487.329 1224.38 487.981 1226.36 487.651Z" fill="#42A0FF"/>
<path d="M1291.01 525.137C1291.01 525.137 1277.55 549.111 1248.13 541.656C1241.76 525.322 1241.55 523.4 1232.1 502.143C1222.64 480.887 1219.59 479.327 1229.45 471.879C1239.3 464.432 1262.21 460.306 1264.65 461.754C1267.09 463.202 1289.89 517.722 1291.01 525.137Z" fill="#0071E3"/>
<path d="M1230.05 497.64C1236.37 498.605 1242.87 498.694 1249.28 498.597C1256.39 498.484 1263.61 498.171 1270.38 496.048C1273.31 495.131 1276.14 493.804 1278.71 492.131C1284.71 506.583 1290.46 521.502 1291.01 525.137C1291.01 525.137 1277.55 549.112 1248.13 541.657C1241.76 525.322 1241.55 523.4 1232.1 502.144C1231.37 500.527 1230.69 499.039 1230.05 497.64Z" fill="#42A0FF"/>
<path d="M1344.01 640.9L1338.76 643.707C1338.76 643.707 1284.42 562.261 1278.48 552.674C1281.96 569.395 1284.38 585.359 1285.81 592.726C1288.15 604.749 1320.01 639.879 1320.01 639.879L1313.69 644.93C1313.69 644.93 1279.54 612.02 1271.91 599.827C1262.7 585.085 1257.83 557.886 1252.43 543.144C1265.07 532.89 1284.24 526.383 1290.04 522.981C1291.74 528.161 1305.23 552.626 1315.3 573.279C1325.38 593.924 1344.01 640.9 1344.01 640.9Z" fill="#3D3C5B"/>
<path d="M1326.58 500.64C1326.58 500.64 1333.18 501.468 1334.76 504.395C1336.33 507.315 1335.75 511.119 1332.72 512.309C1329.7 513.492 1326.81 505.208 1326.81 505.208L1324.51 502.707L1326.58 500.64Z" fill="#FFE8DB"/>
<path d="M1298.14 477.485C1307.12 483.686 1316.83 491.181 1330.48 502.055L1327.59 505.867C1327.59 505.867 1308.44 496.264 1290.42 487.16C1284.03 482.487 1291.52 474.566 1298.14 477.485Z" fill="#0071E3"/>
<path d="M1260.19 473.464C1256.25 471.276 1252.75 467.987 1255.68 464.473C1258.28 462.615 1259.48 453.358 1297.78 477.236C1305.61 482.407 1299.6 490.852 1291.91 487.932C1276.56 481.048 1261.98 474.461 1260.19 473.464Z" fill="#0071E3"/>
<path d="M1242.4 477.565L1256.15 501.564L1253.78 511.851C1253.78 511.851 1246.38 505.746 1246.24 505.384C1246.1 505.031 1240.59 478.265 1240.59 478.265L1242.4 477.565Z" fill="#212121"/>
<path d="M1241.11 454.894C1241.11 455.577 1247.79 464.223 1247.69 464.673C1247.59 465.124 1243.36 468.855 1240.04 469.973C1235.43 471.18 1234.98 471.091 1234.98 471.091C1234.98 471.091 1230.41 459.357 1229.12 457.186C1238.38 452.248 1241.11 454.894 1241.11 454.894Z" fill="#FFE8DB"/>
<path d="M1236.47 460.606C1244.73 459.581 1250.33 450.306 1248.98 439.889C1247.64 429.472 1239.86 421.857 1231.6 422.881C1223.35 423.906 1217.75 433.181 1219.09 443.598C1220.44 454.015 1228.22 461.63 1236.47 460.606Z" fill="#FFE8DB"/>
<path d="M1245.78 459.253L1251.27 462.285C1251.27 462.285 1246.68 476.231 1246.57 475.957C1246.46 475.684 1241.26 468.518 1241.38 468.341C1241.48 468.156 1245.78 459.253 1245.78 459.253Z" fill="#42A0FF"/>
<path d="M1237.36 469.604C1237.47 469.749 1236.95 479.022 1236.66 479.086C1236.36 479.15 1230.19 470.858 1230.19 470.858L1231.05 465.462L1237.36 469.604Z" fill="#42A0FF"/>
<path d="M1240.31 471.14L1242.91 473.625L1241.49 477.228L1237.94 475.322L1238.98 471.654L1240.31 471.14Z" fill="#212121"/>
<path d="M1315.75 641.399C1317.03 639.702 1321.02 640.322 1322.34 644.327C1323.66 648.332 1325.78 653.053 1325.55 656.407C1325.33 659.76 1322.91 659.559 1321.96 658.449C1321.01 657.34 1313.59 649.836 1314.14 645.244C1314.54 641.882 1315.73 641.23 1315.73 641.23" fill="#212121"/>
<path d="M1342.26 643.241C1343.83 641.793 1347.65 643.112 1348.22 647.278C1348.78 651.444 1350 656.463 1349.18 659.72C1348.35 662.977 1346 662.358 1345.27 661.103C1344.54 659.841 1338.61 651.163 1339.99 646.739C1340.99 643.506 1342.29 643.072 1342.29 643.072" fill="#212121"/>
<path d="M1245.14 450.414C1245.14 450.414 1250.43 453.301 1251.32 448.09C1252.22 442.87 1254.41 435.93 1252.04 431.12C1249.68 426.311 1244.61 423.536 1242.03 426.407C1239.46 429.278 1235.72 430.734 1238.57 436.621C1241.43 442.508 1245.71 440.554 1247.14 438.254C1248.57 435.946 1248.16 442.002 1246.45 443.023C1244.73 444.044 1241.82 448.556 1245.14 450.414Z" fill="#212121"/>
<path d="M1246.66 444.537C1248.25 444.339 1249.32 442.482 1249.05 440.389C1248.78 438.296 1247.27 436.759 1245.68 436.957C1244.08 437.154 1243.01 439.011 1243.28 441.104C1243.55 443.198 1245.06 444.734 1246.66 444.537Z" fill="#FFE8DB"/>
<path d="M1242.82 426.407C1242.82 426.407 1241.66 431.571 1231.67 432.656C1221.68 433.742 1220.99 441.181 1218.18 439.734C1215.37 438.286 1209.88 430.244 1223.22 425.338C1236.55 420.432 1242.46 422.266 1242.82 426.407Z" fill="#212121"/>
<path d="M1313.79 517.585C1314.29 517.794 1320.45 518.976 1320.45 518.976L1320.03 556.551L1310.08 553.913L1313.79 517.585Z" fill="#0071E3"/>
<path d="M1320.45 518.968C1322.72 518.268 1346.75 514.947 1346.75 514.947C1346.75 514.947 1348.05 544.599 1348.4 544.913C1348.75 545.235 1320.03 556.534 1320.03 556.534" fill="#0071E3"/>
<path d="M1313.79 517.585L1340.14 512.904L1346.75 514.947L1320.45 518.968L1313.79 517.585Z" fill="#42A0FF"/>
<path d="M1322.08 516.845L1323.57 507.894L1328.14 506.679L1329.65 506.92L1329.76 508.658L1326.11 509.623L1325.44 516.523L1323.33 517.046L1322.08 516.845Z" fill="#0071E3"/>
<path d="M1334.95 510.178L1335.1 514.754L1336.1 514.915L1338.3 514.601L1336.44 505.642C1336.44 505.642 1335.15 505.248 1335.3 505.682C1335.59 506.551 1335.94 508.609 1334.95 510.178Z" fill="#0071E3"/>
<path d="M1313.89 519.451L1318.89 520.239L1318.73 533.42L1319.83 534.538L1319.17 555.658L1310.65 553.712L1313.89 519.451Z" fill="#42A0FF"/>
<path d="M1321.29 518.775L1323.93 529.11L1344.74 524.348L1346.75 514.947L1321.29 518.775Z" fill="#0071E3"/>
<path d="M1269.15 476.713C1267.73 476.375 1266.32 476.038 1264.92 475.7C1264.89 475.692 1264.85 475.684 1264.81 475.676C1269.9 478.024 1278.46 481.893 1287.73 486.059C1287.36 485.785 1286.99 485.512 1286.62 485.254C1283.34 482.978 1279.78 481.121 1276.24 479.263C1275.5 478.877 1274.75 478.491 1273.98 478.161C1272.44 477.501 1270.79 477.107 1269.15 476.713Z" fill="#42A0FF"/>
<path d="M622.193 754.621C622.193 754.621 608.35 751.669 608.226 760.186C608.112 768.695 606.594 780.437 606.594 780.437C606.594 780.437 612.715 769.547 628.232 763.966L625.975 754.403L622.193 754.621Z" fill="#FFE8DB"/>
<path d="M598.191 755.384C601.58 754.701 612.879 750.454 614.857 753.334C616.375 754.653 615.874 756.068 615.07 757.604C614.266 759.14 605.953 774.445 608.095 778.193C606.799 782.906 605.658 788.069 603.787 788.134C601.916 788.198 599.832 784.048 598.478 779.391C597.124 774.735 607.677 758.087 606.257 757.966C604.829 757.846 598.092 757.484 598.092 757.484L598.191 755.384Z" fill="#212121"/>
<path d="M607.168 712.8C607.168 712.8 595.951 704.315 592.119 711.964C588.287 719.612 587.614 732.078 587.614 732.078C587.614 732.078 592.086 722.306 608.53 723.786L610.672 714.2L607.168 712.8Z" fill="#FFE8DB"/>
<path d="M579.654 705.61C582.797 705.514 596.156 704.339 599.102 706.27C602.039 708.2 598.954 710.379 597.945 711.449C596.936 712.527 586.67 726.979 588.287 730.968C586.375 735.472 583.765 740.096 582.69 740.273C581.615 740.45 579.31 735.713 578.588 730.928C577.865 726.143 590.551 710.982 589.148 710.685C587.745 710.387 578.76 707.347 578.76 707.347L579.654 705.61Z" fill="#212121"/>
<path d="M740.601 713.7C740.601 713.7 740.601 713.701 739.181 718.108C736.194 728.274 707.606 753.487 698.276 759.205C685.089 768.824 670.737 760.403 681.741 749.055C692.204 739.292 700.811 727.534 704.578 719.813C704.282 720.054 717.116 701.275 726.471 693.747L740.601 713.7Z" fill="#323656"/>
<path d="M724.017 682.962L731.845 700.037C738.861 719.99 716.246 718.269 704.356 722.274C695.88 724.566 685.959 727.984 667.25 732.102C654.958 729.971 650.067 718.848 663.229 714.071C663.837 713.821 664.46 713.572 665.051 713.307C680.666 706.278 702.978 684.708 724.017 682.962Z" fill="#323656"/>
<path d="M667.242 732.102C666.06 732.021 661.842 731.41 660.612 731.33C644.069 730.212 616.35 729.15 602.844 724.719L607.045 711.537C628.06 710.894 648.902 714.963 665.617 713.17C680.281 716.226 685.434 727.445 667.242 732.102Z" fill="#323656"/>
<path d="M625.688 768.14L621.101 752.505C621.101 752.505 648.328 744.318 667.66 745.927C673.593 746.417 679.994 746.112 686.328 745.283C700.171 748.114 700.787 756.551 692.852 761.931C684.917 767.312 625.688 768.14 625.688 768.14Z" fill="#323656"/>
<path d="M798.878 608.087C798.878 608.087 803.661 622 797.614 627.485C791.558 632.97 785.043 627.976 785.043 627.976L782.286 640.932L770.289 638.986C770.289 638.986 773.054 613.845 777.206 607.307C781.358 600.768 795.243 597.503 798.878 608.087Z" fill="#FFE8DB"/>
<path d="M777.551 695.42L781.752 697.455C781.752 697.455 783.081 699.779 785.494 699.08C787.906 698.38 788.177 697.978 789.605 696.474C789.999 696.056 790.86 692.702 790.622 691.769C790.516 691.359 789.662 687.933 785.387 690.217C777.091 694.648 778.552 690.804 778.552 690.804L777.551 695.42Z" fill="#FFE8DB"/>
<path d="M747.116 684.547C760.639 690.144 783.328 688.528 783.328 688.528C783.328 688.528 783.246 692.058 780.472 696.192C777.699 700.318 753.303 699.176 741.101 692.436C734.89 689.01 735.71 683.284 743.317 682.842C745.491 683.373 745.754 683.984 747.116 684.547Z" fill="#0071E3"/>
<path d="M770.477 688.641C763.084 688.351 753.935 687.37 747.116 684.547C745.754 683.984 745.491 683.373 743.317 682.834C735.71 683.284 734.89 689.003 741.101 692.429C744.802 694.471 749.635 695.999 754.641 697.021C760.352 695.597 766.416 693.378 770.477 688.641Z" fill="#5751BB"/>
<path d="M767.852 644.946C779.34 650.841 767.548 661.119 761.788 667.473C756.626 673.167 748.527 681.547 746.574 687.338C744.63 693.128 737.441 692.839 737.696 684.965C738.828 672.877 757.554 639.67 767.852 644.946Z" fill="#42A0FF"/>
<path d="M706.588 682.834C706.588 682.834 714.786 706.133 743.965 717.055C749.758 705.731 758.94 691.753 765.964 684.04C772.989 676.327 775.623 684.909 782.318 680.164C785.396 677.984 785.56 670.424 786.027 665.615C786.495 660.805 792.436 656.784 790.458 653.471C786.364 646.586 786.044 646.651 781.506 641.463C771.462 629.971 760.311 630.71 747.091 652.369C733.88 674.027 712.381 682.777 706.588 682.834Z" fill="#0071E3"/>
<path d="M790.475 653.478C788.399 649.98 787.291 648.275 786.11 646.771C784.124 654.387 781.662 664.215 785.593 670.641C785.773 668.864 785.888 667.11 786.036 665.623C786.503 660.813 792.444 656.792 790.475 653.478Z" fill="#5751BB"/>
<path d="M856.982 607.661C858.295 606.084 860.059 604.219 862.34 604.572C866.96 611.963 850.253 626.577 847.356 618.269C849.613 614.28 854.233 611.513 856.982 607.661Z" fill="#FFE8DB"/>
<path d="M818.858 637.241C832.48 631.877 847.865 615.671 847.865 615.671C847.865 615.671 850.343 618.236 851.345 623.078C852.346 627.928 833.399 640.924 820.204 648.291C814.009 651.749 809.356 643.578 815.379 639.259C817.316 638.134 817.48 637.78 818.858 637.241Z" fill="#0071E3"/>
<path d="M773.678 657.99C768.483 646.353 784.247 645.565 792.789 644.141C800.445 642.863 812.113 641.302 817.332 637.981C822.551 634.659 827.236 641.222 822.001 647.205C809.159 655.143 778.338 668.43 773.678 657.99Z" fill="#0071E3"/>
<path d="M711.594 624.228C711.594 624.228 698.415 641.656 711.873 644.986C724.977 641.519 727.299 639.999 727.299 639.999L716.977 646.723C716.977 646.723 712.767 650.278 716.254 653.052C719.734 655.819 728.473 652.891 737.704 649.127C742.308 647.254 737.433 657.057 742.874 655.191C765.71 647.366 778.027 631.313 782.179 622.861C790.655 610.668 792.05 615.623 792.05 615.623L803.62 608.465C803.62 608.465 801.528 596.441 787.447 595.09C765.94 593.031 759.375 619.29 759.006 619.845C754.452 626.689 720.185 629.488 711.594 624.228Z" fill="#212121"/>
<path d="M790.646 617.756C791.237 615.653 790.157 613.528 788.234 613.01C786.312 612.491 784.275 613.775 783.684 615.877C783.094 617.98 784.173 620.105 786.096 620.624C788.018 621.142 790.055 619.858 790.646 617.756Z" fill="#FFE8DB"/>
<path d="M821.812 695.637L820.869 694.157L820.368 693.369L814.509 684.177L814.009 683.388L813.574 682.705C811.539 679.528 807.264 678.555 804.014 680.541L779.537 695.533C776.287 697.527 775.303 701.717 777.329 704.902L785.576 717.834C787.611 721.019 791.886 721.992 795.136 719.998L819.613 705.007C822.854 703.02 823.839 698.822 821.812 695.637ZM818.358 694.6L817.332 695.227C816.643 695.645 815.732 695.444 815.305 694.768L811.005 688.021C810.579 687.345 810.784 686.461 811.473 686.034L812.499 685.407L818.358 694.6ZM793.864 718.019C792.789 718.679 791.558 718.848 790.417 718.582C789.277 718.325 788.251 717.649 787.578 716.596L779.332 703.663C778.667 702.618 778.495 701.412 778.757 700.286C779.02 699.168 779.717 698.154 780.792 697.495L805.27 682.504C806.336 681.852 807.567 681.683 808.716 681.941C809.857 682.206 810.891 682.882 811.563 683.927L811.998 684.611L810.973 685.238C809.84 685.93 809.496 687.402 810.201 688.503L814.501 695.251C815.207 696.361 816.7 696.699 817.833 696.007L818.858 695.38L819.802 696.859C820.467 697.913 820.639 699.119 820.376 700.237C820.114 701.355 819.416 702.369 818.35 703.028L793.864 718.019Z" fill="#0071E3"/>
<path d="M802.677 697.133L802.972 696.956L799.124 690.908L804.145 687.836L807.813 693.586L802.496 696.843L802.677 697.133L802.972 696.956L802.677 697.133L802.865 697.422L808.773 693.803L804.367 686.887L798.155 690.691L802.57 697.607L802.865 697.422L802.677 697.133Z" fill="#0071E3"/>
<path d="M809.384 695.363L808.674 695.797L813.343 703.123L814.053 702.688L809.384 695.363Z" fill="#0071E3"/>
<path d="M807.752 696.366L807.042 696.801L811.712 704.126L812.421 703.692L807.752 696.366Z" fill="#0071E3"/>
<path d="M806.11 697.367L805.4 697.801L810.069 705.127L810.779 704.692L806.11 697.367Z" fill="#0071E3"/>
<path d="M804.477 698.372L803.767 698.807L806.667 703.356L807.377 702.921L804.477 698.372Z" fill="#0071E3"/>
<path d="M803.243 689.211L802.644 692.396L809.094 693.859L809.463 692.299L804.523 691.181L804.851 689.484L803.243 689.211Z" fill="#7AC943"/>
<path d="M794.004 702.449L794.299 702.264L790.442 696.224L795.464 693.152L799.132 698.902L793.815 702.159L794.004 702.449L794.299 702.264L794.004 702.449L794.184 702.738L800.1 699.119L795.694 692.203L789.482 696.007L793.889 702.923L794.184 702.738L794.004 702.449Z" fill="#0071E3"/>
<path d="M800.712 700.676L800.002 701.11L804.671 708.436L805.381 708.001L800.712 700.676Z" fill="#0071E3"/>
<path d="M799.069 701.676L798.359 702.111L803.028 709.436L803.738 709.002L799.069 701.676Z" fill="#0071E3"/>
<path d="M797.438 702.68L796.728 703.114L801.397 710.44L802.107 710.005L797.438 702.68Z" fill="#0071E3"/>
<path d="M795.801 703.678L795.091 704.113L797.99 708.662L798.7 708.228L795.801 703.678Z" fill="#0071E3"/>
<path d="M794.561 694.527L793.962 697.712L800.42 699.175L800.789 697.615L795.841 696.489L796.178 694.8L794.561 694.527Z" fill="#7AC943"/>
<path d="M785.322 707.757L785.617 707.58L781.769 701.532L786.79 698.46L790.458 704.21L785.133 707.467L785.322 707.757L785.617 707.58L785.322 707.757L785.51 708.054L791.419 704.435L787.012 697.511L780.8 701.315L785.207 708.231L785.51 708.054L785.322 707.757Z" fill="#0071E3"/>
<path d="M792.028 705.986L791.319 706.421L795.988 713.746L796.698 713.312L792.028 705.986Z" fill="#0071E3"/>
<path d="M790.397 706.99L789.688 707.424L794.357 714.75L795.066 714.315L790.397 706.99Z" fill="#0071E3"/>
<path d="M788.759 707.997L788.049 708.432L792.718 715.757L793.428 715.323L788.759 707.997Z" fill="#0071E3"/>
<path d="M787.122 708.995L786.412 709.43L789.312 713.979L790.021 713.545L787.122 708.995Z" fill="#0071E3"/>
<path d="M785.888 699.835L785.289 703.028L791.739 704.484L792.108 702.923L787.168 701.805L787.496 700.116L785.888 699.835Z" fill="#7AC943"/>
</svg>
